<svg xmlns="http://www.w3.org/2000/svg" viewBox="38 126 224 48" role="img" aria-label="Expensor">
  <g fill="#488eff" transform="matrix(3.642987286363686,0,0,3.642987286363686,35.62841508265241,115.40983265866019)">
    <path d="M7.48 13.05L1.20 13.05L1.20 3.35L7.13 3.35L7.13 4.51L2.56 4.51L2.56 7.39L6.62 7.39L6.62 8.53L2.56 8.53L2.56 11.89L7.48 11.89L7.48 13.05ZM15.02 13.05L13.59 13.05Q13.44 12.74 13.22 12.36Q12.99 11.98 12.73 11.59Q12.46 11.19 12.18 10.79Q11.90 10.40 11.63 10.05L11.63 10.05Q11.37 10.40 11.09 10.80Q10.81 11.20 10.55 11.60Q10.29 12.00 10.07 12.38Q9.84 12.75 9.69 13.05L9.69 13.05L8.34 13.05Q8.83 12.10 9.51 11.11Q10.19 10.12 10.86 9.23L10.86 9.23L8.46 5.77L9.93 5.77L11.66 8.32L13.41 5.77L14.80 5.77L12.45 9.14Q13.12 10.05 13.82 11.07Q14.53 12.08 15.02 13.05L15.02 13.05ZM21.45 9.42L21.45 9.42Q21.45 8.15 20.82 7.46Q20.19 6.78 19.14 6.78L19.14 6.78Q18.55 6.78 18.22 6.82Q17.89 6.86 17.70 6.92L17.70 6.92L17.70 11.51Q17.93 11.70 18.38 11.89Q18.83 12.07 19.36 12.07L19.36 12.07Q19.92 12.07 20.32 11.87Q20.72 11.66 20.97 11.30Q21.22 10.95 21.34 10.46Q21.45 9.98 21.45 9.42ZM22.81 9.42L22.81 9.42Q22.81 10.25 22.59 10.95Q22.37 11.65 21.95 12.15Q21.53 12.66 20.92 12.94Q20.31 13.22 19.53 13.22L19.53 13.22Q18.90 13.22 18.42 13.05Q17.93 12.88 17.70 12.73L17.70 12.73L17.70 15.64L16.39 15.64L16.39 5.99Q16.86 5.88 17.55 5.75Q18.24 5.61 19.15 5.61L19.15 5.61Q19.99 5.61 20.66 5.88Q21.34 6.15 21.81 6.64Q22.29 7.13 22.55 7.83Q22.81 8.54 22.81 9.42ZM24.23 9.42L24.23 9.42Q24.23 8.46 24.51 7.74Q24.79 7.01 25.26 6.54Q25.72 6.06 26.32 5.82Q26.92 5.59 27.55 5.59L27.55 5.59Q29.02 5.59 29.81 6.50Q30.59 7.42 30.59 9.30L30.59 9.30Q30.59 9.38 30.59 9.51Q30.59 9.65 30.58 9.76L30.58 9.76L25.59 9.76Q25.68 10.89 26.25 11.48Q26.82 12.07 28.04 12.07L28.04 12.07Q28.73 12.07 29.20 11.95Q29.67 11.83 29.90 11.72L29.90 11.72L30.09 12.81Q29.85 12.94 29.25 13.08Q28.66 13.22 27.90 13.22L27.90 13.22Q26.95 13.22 26.26 12.93Q25.56 12.64 25.12 12.14Q24.67 11.63 24.45 10.94Q24.23 10.25 24.23 9.42ZM25.62 8.71L29.23 8.71Q29.25 7.83 28.79 7.26Q28.34 6.69 27.54 6.69L27.54 6.69Q27.09 6.69 26.75 6.87Q26.40 7.04 26.17 7.32Q25.93 7.60 25.79 7.97Q25.66 8.33 25.62 8.71L25.62 8.71ZM32.47 13.05L32.47 5.98Q32.91 5.87 33.66 5.74Q34.40 5.61 35.36 5.61L35.36 5.61Q36.23 5.61 36.81 5.86Q37.38 6.10 37.72 6.54Q38.07 6.99 38.21 7.60Q38.35 8.22 38.35 8.96L38.35 8.96L38.35 13.05L37.04 13.05L37.04 9.24Q37.04 8.57 36.95 8.09Q36.86 7.62 36.65 7.32Q36.44 7.03 36.09 6.89Q35.74 6.76 35.22 6.76L35.22 6.76Q35.01 6.76 34.79 6.78Q34.57 6.79 34.36 6.81Q34.16 6.83 34.00 6.86Q33.84 6.89 33.77 6.90L33.77 6.90L33.77 13.05L32.47 13.05ZM42.20 12.11L42.20 12.11Q42.99 12.11 43.38 11.90Q43.76 11.69 43.76 11.23L43.76 11.23Q43.76 10.75 43.39 10.47Q43.01 10.19 42.14 9.84L42.14 9.84Q41.72 9.67 41.34 9.50Q40.95 9.32 40.67 9.09Q40.39 8.85 40.22 8.51Q40.05 8.18 40.05 7.69L40.05 7.69Q40.05 6.72 40.77 6.15Q41.48 5.59 42.71 5.59L42.71 5.59Q43.02 5.59 43.33 5.62Q43.64 5.66 43.90 5.71Q44.17 5.75 44.37 5.81Q44.58 5.87 44.69 5.91L44.69 5.91L44.45 7.03Q44.24 6.92 43.79 6.80Q43.34 6.68 42.71 6.68L42.71 6.68Q42.17 6.68 41.76 6.89Q41.36 7.11 41.36 7.57L41.36 7.57Q41.36 7.81 41.45 7.99Q41.54 8.18 41.73 8.32Q41.92 8.47 42.20 8.60Q42.48 8.72 42.87 8.86L42.87 8.86Q43.39 9.06 43.79 9.25Q44.20 9.44 44.48 9.69Q44.77 9.94 44.93 10.30Q45.08 10.65 45.08 11.17L45.08 11.17Q45.08 12.18 44.33 12.70Q43.58 13.22 42.20 13.22L42.20 13.22Q41.23 13.22 40.68 13.05Q40.14 12.89 39.94 12.81L39.94 12.81L40.18 11.69Q40.40 11.77 40.89 11.94Q41.38 12.11 42.20 12.11ZM53.17 9.41L53.17 9.41Q53.17 10.28 52.92 10.98Q52.67 11.68 52.21 12.18Q51.76 12.68 51.13 12.96Q50.50 13.23 49.76 13.23L49.76 13.23Q49.01 13.23 48.38 12.96Q47.75 12.68 47.30 12.18Q46.84 11.68 46.59 10.98Q46.34 10.28 46.34 9.41L46.34 9.41Q46.34 8.55 46.59 7.85Q46.84 7.14 47.30 6.64Q47.75 6.13 48.38 5.86Q49.01 5.59 49.76 5.59L49.76 5.59Q50.50 5.59 51.13 5.86Q51.76 6.13 52.21 6.64Q52.67 7.14 52.92 7.85Q53.17 8.55 53.17 9.41ZM51.81 9.41L51.81 9.41Q51.81 8.18 51.26 7.46Q50.71 6.73 49.76 6.73L49.76 6.73Q48.80 6.73 48.25 7.46Q47.70 8.18 47.70 9.41L47.70 9.41Q47.70 10.64 48.25 11.36Q48.80 12.08 49.76 12.08L49.76 12.08Q50.71 12.08 51.26 11.36Q51.81 10.64 51.81 9.41ZM54.82 9.17L54.82 8.06L56.13 8.06Q56.53 8.06 56.96 8.00Q57.39 7.94 57.76 7.79Q58.14 7.64 58.43 7.38Q58.72 7.13 58.84 6.73L58.84 6.73L54.82 6.73L54.82 5.73L58.87 5.73Q58.80 5.29 58.62 5.03Q58.45 4.76 58.19 4.61Q57.93 4.47 57.60 4.41Q57.27 4.35 56.91 4.35L56.91 4.35L54.82 4.35L54.82 3.35L61.59 3.35L61.39 4.35L59.40 4.35Q59.72 4.61 59.91 4.96Q60.09 5.31 60.16 5.73L60.16 5.73L61.12 5.73L60.93 6.73L60.12 6.73Q60.00 7.35 59.66 7.78Q59.32 8.20 58.81 8.47Q58.31 8.74 57.69 8.88Q57.06 9.02 56.41 9.06L56.41 9.06Q56.76 9.37 57.20 9.83Q57.64 10.29 58.11 10.83Q58.58 11.37 59.02 11.94Q59.47 12.52 59.82 13.05L59.82 13.05L58.30 13.05Q57.90 12.50 57.45 11.95Q56.99 11.40 56.53 10.88Q56.07 10.37 55.62 9.93Q55.17 9.49 54.82 9.17L54.82 9.17Z" />
  </g>
</svg>
