<svg xmlns="http://www.w3.org/2000/svg" viewBox="14 3 74 92" role="img" aria-label="Expensor wallet">
  <path fill="#488eff" d="M71.18 13.86v15h5.17v-15l6.72 6.72 3.66-3.65-13-13-13 13 3.66 3.65Zm-9.31 59.42h5.18v-15h-5.18Zm11.9-35.67H53.09v-16A2.58 2.58 0 0 0 50.5 19H27.23a11.9 11.9 0 0 0-11.89 11.89v51.18A11.9 11.9 0 0 0 27.23 94h46.54a11.9 11.9 0 0 0 11.89-11.93V49.5a11.9 11.9 0 0 0-11.89-11.89M27.23 24.17h20.69v13.44H27.23a6.72 6.72 0 0 1 0-13.44m53.26 57.9a6.73 6.73 0 0 1-6.72 6.72H27.23a6.73 6.73 0 0 1-6.72-6.72V40.69a11.8 11.8 0 0 0 6.72 2.09h46.54a6.73 6.73 0 0 1 6.72 6.72Z" />
</svg>
